<svg xmlns="http://www.w3.org/2000/svg" viewBox="0 0 512 512">
  <rect width="512" height="512" fill="#1a1a1a"/>
  <circle cx="256" cy="256" r="240" fill="none" stroke="#333" stroke-width="20"/>
  <circle cx="256" cy="256" r="140" fill="none" stroke="#333" stroke-width="20"/>
  <circle cx="256" cy="256" r="60" fill="#333"/>
  <path d="M155.2 92.8c-17.6 17.6-33.6 51.2-38.4 83.2-4.8 32 4.8 60.8 20.8 76.8" fill="none" stroke="#333" stroke-width="16" stroke-linecap="round"/>
  <path d="M120 180c-8 12-12 28-10 44 2 16 10 28 20 36" fill="none" stroke="#333" stroke-width="12" stroke-linecap="round"/>
  <circle cx="178" cy="334" r="16" fill="#333"/>
  <path d="M396 256c0-12-3.2-23.2-8.8-32.8" fill="none" stroke="#333" stroke-width="16" stroke-linecap="round"/>
  <path d="M356.8 356.8c17.6-17.6 33.6-51.2 38.4-83.2 4.8-32-4.8-60.8-20.8-76.8" fill="none" stroke="#333" stroke-width="16" stroke-linecap="round"/>
</svg>
